<svg xmlns="http://www.w3.org/2000/svg" viewBox="0 0 17.03 18.86"><defs><style>.cls-1{fill:#fff;}</style></defs><g id="Calque_2" data-name="Calque 2"><g id="Calque_1-2" data-name="Calque 1"><path class="cls-1" d="M17,18.43H11.37V17a7.24,7.24,0,0,1-5.18,1.91C2.27,18.86,0,16.31,0,13.28,0,9.93,2.7,7.92,7.06,7.92h3.77V7.63c0-1.4-.86-2.3-2.73-2.3-1.62,0-2.77.65-4.5,2.19L.72,3.6A10.66,10.66,0,0,1,8.85,0C13.89,0,17,2.81,17,8Zm-6.2-6.73H7.92c-1,0-1.66.5-1.66,1.37s.69,1.4,1.84,1.4a2.54,2.54,0,0,0,2.73-2.63Z"/></g></g></svg>