<svg xmlns="http://www.w3.org/2000/svg" viewBox="0 0 19.44 25.34"><defs><style>.cls-1{fill:#fff;}</style></defs><g id="Calque_2" data-name="Calque 2"><g id="Calque_1-2" data-name="Calque 1"><path class="cls-1" d="M19.44.43v15.8c0,6.16-3.78,9.11-9.65,9.11A13.61,13.61,0,0,1,.72,22.1l3.13-4.35A8.45,8.45,0,0,0,9.14,19.8c2.34,0,4.11-1.05,4.11-3.17V16a6.38,6.38,0,0,1-4.72,1.66C3.6,17.64,0,14.18,0,8.78S3.67,0,8.53,0a6.13,6.13,0,0,1,5.26,2.27V.43ZM9.86,5.11a3.36,3.36,0,0,0-3.52,3.6,3.52,3.52,0,1,0,7,0A3.28,3.28,0,0,0,9.86,5.11Z"/></g></g></svg>