<svg xmlns="http://www.w3.org/2000/svg" viewBox="0 0 269.51 182.57"><defs><style>.cls-1{fill:#fff;}.cls-2{fill:none;stroke:#fff;stroke-linecap:round;stroke-miterlimit:10;stroke-width:4px;}</style></defs><g id="Calque_2" data-name="Calque 2"><g id="Calque_1-2" data-name="Calque 1"><path class="cls-1" d="M9.14,11.31H0V4.15H26.21v7.16H17.07v23.3H9.14Z"/><path class="cls-1" d="M51.82,34.61H43.89V21.55a3.24,3.24,0,0,0-3.37-3.42,3.21,3.21,0,0,0-3.33,3.42V34.61H29.26V0h7.93V13.15a8.81,8.81,0,0,1,6-2.17c5.13,0,8.63,3.79,8.63,9.42Z"/><path class="cls-1" d="M63.73,25.84c.88,1.75,2.58,2.63,5.17,2.63a11.47,11.47,0,0,0,6-1.8l2.86,5.4a14.76,14.76,0,0,1-9.18,3.09c-7.52,0-13-5.26-13-12.09A12.1,12.1,0,0,1,68,11,10.7,10.7,0,0,1,79,21.92a15.65,15.65,0,0,1-.5,3.92Zm7.75-5.17a3.6,3.6,0,0,0-3.83-3.46,4.3,4.3,0,0,0-4.2,3.46Z"/><path class="cls-1" d="M2.58,50.3h7.94V61.42H21.64V50.3h7.94V80.76H21.64V68.57H10.52V80.76H2.58Z"/><path class="cls-1" d="M46.38,57.13C53.25,57,59.11,62.62,59,69.22c.13,6.6-5.73,12.23-12.6,12.09-6.88.14-12.69-5.49-12.55-12.09C33.69,62.62,39.5,57,46.38,57.13Zm0,7.29c-2.63,0-4.47,2-4.47,4.8S43.79,74,46.42,74a4.82,4.82,0,0,0,0-9.6Z"/><path class="cls-1" d="M62.81,57.69h7.94v13a3.35,3.35,0,1,0,6.69,0v-13h7.93V70c0,6.78-4.75,11.3-11.26,11.3S62.81,76.79,62.81,70Z"/><path class="cls-1" d="M92,72.17A9.15,9.15,0,0,0,98.34,75c1.34,0,2-.33,2-1,0-.51-.37-.74-1.34-1.15l-2.58-1.06C91.88,70,89.76,68,89.76,64.38c0-4.57,3.55-7.25,8.95-7.25a11.41,11.41,0,0,1,8.68,3.37l-3.74,4.84a7.44,7.44,0,0,0-4.89-2c-1.06,0-1.62.28-1.62.88s.46.83,1.57,1.24l2.31.93c4.61,1.84,6.74,3.6,6.74,7.24a6.73,6.73,0,0,1-2.68,5.63,11.15,11.15,0,0,1-6.88,2,12.31,12.31,0,0,1-9.92-4.43Z"/><path class="cls-1" d="M118.32,72c.88,1.75,2.59,2.63,5.17,2.63a11.51,11.51,0,0,0,6-1.8l2.86,5.4a14.78,14.78,0,0,1-9.18,3.09c-7.53,0-13-5.26-13-12.09a12.09,12.09,0,0,1,12.32-12.09,10.7,10.7,0,0,1,11,10.94,15.65,15.65,0,0,1-.51,3.92Zm7.76-5.17a3.61,3.61,0,0,0-3.83-3.46,4.29,4.29,0,0,0-4.2,3.46Z"/><path class="cls-1" d="M57.64,116.57c1.8,2.4,3.69,3.92,6.78,3.92,2.08,0,3.14-.74,3.14-2.21s-.69-1.76-3.09-2.82l-3.14-1.38c-5-2.22-7.71-5.08-7.71-9.18,0-5.4,4.43-9,10.66-9,5,0,8.59,2.4,10.43,6.14l-5.3,4.06c-1.48-2.22-2.86-3.23-5-3.23-1.66,0-2.73.64-2.73,1.93,0,1.11.65,1.71,2.63,2.5l3.51,1.47c5.31,2.22,7.8,4.89,7.8,9.18,0,5.91-4.85,9.51-11.17,9.51-5.49,0-9.92-2.63-12.13-6.83Z"/><path class="cls-1" d="M95.62,120.26v6.65a19.73,19.73,0,0,1-4.66.55c-6.51,0-10.15-3.14-10.15-9.37v-7.61H77.3v-6.65h3.51V98.3h7.93v5.53h6.19v6.65H88.74v6.83c0,2.21,1.07,3,4,3Z"/><path class="cls-1" d="M99.5,103.83h7.93v13a3.35,3.35,0,1,0,6.69,0v-13h7.94v12.33c0,6.78-4.75,11.3-11.26,11.3s-11.3-4.52-11.3-11.3Z"/><path class="cls-1" d="M150.81,92.3v34.61h-7.24v-2.4c-1.43,2-3.65,2.95-6.6,2.95-6.46,0-11.08-5-11.08-12s4.71-12.14,11.08-12.14a8.24,8.24,0,0,1,5.91,2.12V92.3Zm-12.27,18.18c-2.45,0-4.52,1.8-4.52,4.89s2,4.89,4.52,4.89,4.47-1.71,4.47-4.84S141,110.48,138.54,110.48Z"/><path class="cls-1" d="M160,117.12a5.17,5.17,0,1,1-5.26,5.17A5,5,0,0,1,160,117.12Z"/><path class="cls-1" d="M172.83,91a4.69,4.69,0,1,1,0,9.37,4.69,4.69,0,1,1,0-9.37Zm-3.92,12.87h7.93v23.08h-7.93Z"/><path class="cls-1" d="M193.41,103.28c6.87-.14,12.73,5.49,12.6,12.09.13,6.6-5.73,12.23-12.6,12.09-6.88.14-12.69-5.49-12.55-12.09C180.72,108.77,186.53,103.14,193.41,103.28Zm.05,7.29a4.45,4.45,0,0,0-4.48,4.8c0,2.91,1.84,4.8,4.48,4.8s4.42-2,4.42-4.8A4.49,4.49,0,0,0,193.46,110.57Z"/><path class="cls-1" d="M173.45,144.6a4.88,4.88,0,1,1,0,9.75,4.88,4.88,0,1,1,0-9.75ZM169.37,158h8.25v24h-8.25Z"/><path class="cls-1" d="M184.68,173.07a9.49,9.49,0,0,0,6.62,3c1.4,0,2.12-.33,2.12-1,0-.53-.39-.77-1.4-1.2l-2.68-1.11c-4.76-1.92-7-3.93-7-7.72,0-4.76,3.69-7.54,9.31-7.54a11.85,11.85,0,0,1,9,3.5l-3.89,5a7.7,7.7,0,0,0-5.08-2.06c-1.11,0-1.68.29-1.68.91s.48.87,1.63,1.3l2.4,1c4.8,1.92,7,3.74,7,7.53a7,7,0,0,1-2.79,5.86,11.61,11.61,0,0,1-7.15,2.11A12.82,12.82,0,0,1,180.84,178Z"/><line class="cls-2" x1="225.51" y1="170.05" x2="267.51" y2="170.05"/></g></g></svg>