<svg xmlns="http://www.w3.org/2000/svg" viewBox="0 0 296.57 54.87"><defs><style>.cls-1{fill:#fff;}</style></defs><g id="Calque_2" data-name="Calque 2"><g id="Calque_1-2" data-name="Calque 1"><path class="cls-1" d="M28.23,54,17.5,39.24H12.39V54H0V6.48H18.65C29.23,6.48,37,13,37,22.83a15.47,15.47,0,0,1-7.49,13.53L42.05,54ZM12.39,28.44h6.33a5.31,5.31,0,0,0,5.69-5.61c0-3.39-2.23-5.55-5.69-5.55H12.39Z"/><path class="cls-1" d="M77.69,54H66.39v-3A14.53,14.53,0,0,1,56,54.87c-7.85,0-12.39-5.11-12.39-11.16C43.63,37,49,33,57.74,33h7.57V32.4c0-2.81-1.73-4.61-5.48-4.61-3.24,0-5.54,1.3-9,4.4l-5.76-7.85c4.83-4.9,9.72-7.2,16.27-7.2,10.09,0,16.35,5.61,16.35,16ZM65.31,40.54H59.47c-2.09,0-3.31,1-3.31,2.74s1.37,2.8,3.67,2.8c3.17,0,5.48-2,5.48-5.25Z"/><path class="cls-1" d="M120.67,54H108.29V33.63A5,5,0,0,0,103,28.3a5,5,0,0,0-5.18,5.33V54H85.46V18H96.77V21a14.2,14.2,0,0,1,10.15-3.81c8.35,0,13.75,5.76,13.75,14.69Z"/><path class="cls-1" d="M165.53,0V54H154.22V50.26c-2.23,3.1-5.68,4.61-10.29,4.61-10.08,0-17.28-7.85-17.28-18.79S134,17.14,143.93,17.14a12.81,12.81,0,0,1,9.21,3.31V0ZM146.38,28.37c-3.82,0-7.06,2.81-7.06,7.63s3.1,7.64,7.06,7.64c3.81,0,7-2.67,7-7.56S150.19,28.37,146.38,28.37Z"/><path class="cls-1" d="M191.38,17.14C202.1,16.92,211.25,25.71,211,36c.22,10.3-8.93,19.08-19.65,18.87-10.73.21-19.81-8.57-19.59-18.87C171.57,25.71,180.65,16.92,191.38,17.14Zm.07,11.37c-4.11,0-7,3.1-7,7.49s2.88,7.49,7,7.49,6.91-3.17,6.91-7.49S195.41,28.51,191.45,28.51Z"/><path class="cls-1" d="M274.61,54H262.23V33.63c0-3.39-2-5.33-5.12-5.33s-5,1.94-5,5.33V54H239.76V33.63c0-3.39-2-5.33-5.11-5.33s-5,1.94-5,5.33V54H217.29V18H228.6v2.81a13.81,13.81,0,0,1,9.86-3.67c4.47,0,7.92,1.51,10.44,4.61a16.66,16.66,0,0,1,11.81-4.61c8.57,0,13.9,5.76,13.9,14.69Z"/><path class="cls-1" d="M288.57,38.74a8.07,8.07,0,1,1-8.21,8.06A7.86,7.86,0,0,1,288.57,38.74Z"/></g></g></svg>