<svg xmlns="http://www.w3.org/2000/svg" viewBox="0 0 15.19 18.86"><defs><style>.cls-1{fill:#fff;}</style></defs><g id="Calque_2" data-name="Calque 2"><g id="Calque_1-2" data-name="Calque 1"><path class="cls-1" d="M2.88,11.73a7.13,7.13,0,0,0,5,2.24c1,0,1.58-.26,1.58-.8,0-.39-.29-.57-1-.9l-2-.82C2.81,10,1.15,8.5,1.15,5.65,1.15,2.09,3.92,0,8.13,0A8.87,8.87,0,0,1,14.9,2.63L12,6.41A5.78,5.78,0,0,0,8.17,4.86c-.83,0-1.26.22-1.26.68s.36.65,1.22,1l1.8.71c3.6,1.44,5.26,2.81,5.26,5.66a5.24,5.24,0,0,1-2.09,4.39,8.72,8.72,0,0,1-5.36,1.58A9.63,9.63,0,0,1,0,15.41Z"/></g></g></svg>