<svg xmlns="http://www.w3.org/2000/svg" xmlns:xlink="http://www.w3.org/1999/xlink" viewBox="0 0 720 720"><defs><style>.cls-1{fill:#fff;}</style></defs><g id="Calque_2" data-name="Calque 2"><g id="Calque_1-2" data-name="Calque 1"><image width="3000" height="3000" transform="scale(0.24)" xlink:href="../../Free-T-shirt-Mockup-Front.png"/><path class="cls-1" d="M335,295l-14.77-10.72-4.86,1.58,4.56,14-11.78,3.82-14.68-45.19,17.73-5.77c10.07-3.27,19.47.49,22.52,9.87a15.48,15.48,0,0,1-2.94,15.19l17.36,12.91Zm-23-19.42,6-1.95a5.31,5.31,0,0,0,3.67-7.1c-1-3.22-3.83-4.59-7.12-3.52l-6,2Z"/><path class="cls-1" d="M382,279.75l-10.75,3.49-.91-2.81a14.51,14.51,0,0,1-8.69,6.83c-7.46,2.43-13.36-1-15.22-6.78-2.07-6.37,1.82-11.88,10.1-14.57l7.19-2.33-.18-.55c-.86-2.67-3.06-3.85-6.62-2.69-3.09,1-4.88,2.94-7.21,7l-7.9-5.69c3.07-6.15,7-9.85,13.25-11.88,9.59-3.11,17.28.29,20.49,10.16Zm-15.94-9-5.55,1.8c-2,.64-2.84,2-2.3,3.62s2.17,2.25,4.36,1.54c3-1,4.58-3.61,3.58-6.69Z"/><path class="cls-1" d="M422.9,266.46l-11.78,3.83-6.3-19.38a5,5,0,0,0-6.64-3.44,5,5,0,0,0-3.29,6.67l6.3,19.38-11.78,3.82L378.29,243.1,389,239.61l.91,2.81a14.19,14.19,0,0,1,8.48-6.77c7.94-2.58,14.86,1.23,17.62,9.72Z"/><path class="cls-1" d="M296.87,298.24l16.69,51.36-10.75,3.5-1.16-3.57c-1.17,3.64-4,6.14-8.37,7.57-9.59,3.11-18.86-2.13-22.24-12.53s1.13-20.29,10.58-23.36a12.81,12.81,0,0,1,9.79.31l-6.32-19.45Zm-9.45,32.9c-3.63,1.18-5.84,4.85-4.35,9.44s5.3,6.3,9.07,5.08,5.82-4.69,4.3-9.35S291.05,330,287.42,331.14Z"/><path class="cls-1" d="M326.75,306.55c10.13-3.52,21.55,2,24.52,11.87,3.39,9.73-2.59,20.91-12.86,24-10.14,3.52-21.48-2-24.46-11.89C310.56,320.82,316.48,309.66,326.75,306.55Zm3.58,10.8c-3.9,1.27-5.68,5.1-4.33,9.28s5.06,6.23,9,5,5.6-5.15,4.26-9.25S334.1,316.13,330.33,317.35Z"/><path class="cls-1" d="M417.3,315.89l-11.78,3.83-6.29-19.38c-1.05-3.22-3.57-4.44-6.51-3.49s-4.13,3.39-3.08,6.61l6.3,19.38-11.78,3.82-6.3-19.38c-1.05-3.22-3.56-4.44-6.51-3.48s-4.12,3.38-3.08,6.6l6.3,19.38-11.78,3.83-11.13-34.25,10.76-3.49.86,2.67a13.82,13.82,0,0,1,8.25-6.54c4.25-1.38,8-1,11.35,1.16a16.64,16.64,0,0,1,9.81-8c8.15-2.65,15,1.18,17.76,9.67Z"/><path class="cls-1" d="M425.86,297.06a8.07,8.07,0,1,1-5.31,10.21A7.87,7.87,0,0,1,425.86,297.06Z"/><path class="cls-1" d="M392.07,333.55l-1.31.42-1.08-3.31,1.13-.37a.84.84,0,0,1,1.15.52.77.77,0,0,1-.16.8.92.92,0,0,1,1,.66A1,1,0,0,1,392.07,333.55ZM390,330.81l.38,1.17.84-.27a.62.62,0,1,0-.38-1.18Zm1.49,1.08-1,.33.46,1.43,1-.33a.75.75,0,0,0,.56-1A.74.74,0,0,0,391.51,331.89Z"/><path class="cls-1" d="M395,329.92l-.29,3.21a.82.82,0,0,1-.58.8,1.53,1.53,0,0,1-.36.07l-.07-.22a1.07,1.07,0,0,0,.32-.07.59.59,0,0,0,.43-.59l0-.41-1.81-2,.27-.09,1.58,1.8.2-2.38Z"/><path class="cls-1" d="M396.05,331.84l.31-.11.24,1.34-.22.07Z"/><path class="cls-1" d="M398.48,328.06l-1.21.39-.08-.23,2.69-.87.08.23-1.22.4,1,3.07-.26.09Z"/><path class="cls-1" d="M403.45,329.85l-.26.08-.49-1.51a.69.69,0,0,0-.91-.51.75.75,0,0,0-.49,1l.49,1.51-.25.08-1.22-3.77.25-.08.54,1.67a1,1,0,0,1,.65-.63.9.9,0,0,1,1.19.66Z"/><path class="cls-1" d="M404.05,328.38a1,1,0,0,0,1.31.64,1.06,1.06,0,0,0,.68-.64l.22.11a1.35,1.35,0,0,1-.83.77,1.33,1.33,0,0,1-.85-2.52,1.1,1.1,0,0,1,1.43.73.79.79,0,0,1,.06.25Zm1.71-.81a.85.85,0,0,0-1.12-.59.93.93,0,0,0-.54.45,1.05,1.05,0,0,0-.12.72Z"/><path class="cls-1" d="M407.57,324.85l.26-.09.46,1.41,2-.67-.46-1.4.26-.09,1.08,3.32-.26.08-.55-1.67-2,.66.54,1.67-.26.09Z"/><path class="cls-1" d="M412.41,324.2a1.33,1.33,0,1,1-.85,1.67A1.32,1.32,0,0,1,412.41,324.2Zm.07.24a1.08,1.08,0,1,0,1.33.7A1.05,1.05,0,0,0,412.48,324.44Z"/><path class="cls-1" d="M414.39,323.61l.25-.08.5,1.52a.71.71,0,0,0,.93.49.72.72,0,0,0,.47-1l-.5-1.51.26-.09.48,1.51a1,1,0,1,1-1.9.62Z"/><path class="cls-1" d="M417.72,324.53a1,1,0,0,0,.9.18c.31-.1.49-.32.4-.6s-.26-.28-.65-.32l-.25,0c-.44,0-.71-.14-.81-.45a.58.58,0,0,1,.07-.54,1,1,0,0,1,.5-.35,1,1,0,0,1,.9.14l-.11.21a.88.88,0,0,0-.73-.1c-.28.09-.45.29-.37.54s.23.25.6.29l.26,0c.46.05.74.16.85.5a.63.63,0,0,1-.07.57,1,1,0,0,1-.52.36,1.14,1.14,0,0,1-1.09-.2Z"/><path class="cls-1" d="M420,323.2a1,1,0,0,0,1.31.65,1.11,1.11,0,0,0,.69-.65l.21.12a1.35,1.35,0,0,1-.83.77,1.33,1.33,0,0,1-.85-2.52,1.11,1.11,0,0,1,1.44.73,2.15,2.15,0,0,1,.06.25Zm1.71-.8a.83.83,0,0,0-1.11-.59.89.89,0,0,0-.55.45,1.09,1.09,0,0,0-.12.72Z"/><path class="cls-1" d="M424.25,322.21a1.22,1.22,0,0,0,1.19.28c.44-.15.68-.49.55-.88s-.32-.4-.83-.48l-.44-.06c-.48-.05-.84-.14-1-.62a.9.9,0,0,1,.7-1.13,1.23,1.23,0,0,1,1.16.2l-.15.21a1,1,0,0,0-.94-.17.92.92,0,0,0-.44.3.52.52,0,0,0-.07.49c.14.34.34.38.8.45l.43.06c.6.07.92.22,1.06.66a1,1,0,0,1-.74,1.21,1.42,1.42,0,0,1-1.42-.31Z"/><path class="cls-1" d="M428.53,321.7a1.47,1.47,0,0,1-.36.17.69.69,0,0,1-1-.48l-.5-1.52-.42.14-.07-.23.42-.14-.22-.69.25-.08.23.69.78-.26.07.23-.78.26.49,1.5a.48.48,0,0,0,.69.34,1.55,1.55,0,0,0,.33-.15Z"/><path class="cls-1" d="M428.31,319.09l.25-.08.5,1.51a.7.7,0,0,0,.93.5.72.72,0,0,0,.47-.95l-.5-1.52.25-.08.49,1.51a1,1,0,1,1-1.9.62Z"/><path class="cls-1" d="M432.93,316.11l1.22,3.76-.24.08-.16-.49a1.15,1.15,0,0,1-.81.86,1.29,1.29,0,0,1-1.62-.87,1.27,1.27,0,0,1,.8-1.65,1.15,1.15,0,0,1,1.14.2l-.58-1.81Zm-.71,1.92a1,1,0,0,0-.64,1.33,1,1,0,0,0,1.31.72,1.08,1.08,0,0,0-.67-2.05Z"/><path class="cls-1" d="M435.17,319.05a.26.26,0,0,1,.33.17.24.24,0,0,1-.17.32.25.25,0,0,1-.32-.16A.27.27,0,0,1,435.17,319.05Z"/><path class="cls-1" d="M435.45,315.49a.24.24,0,0,1,.3.15.24.24,0,0,1-.45.15A.24.24,0,0,1,435.45,315.49Zm.25,1.2.25-.08.79,2.42-.25.08Z"/><path class="cls-1" d="M437.94,315.91a1.33,1.33,0,1,1,.82,2.52,1.3,1.3,0,0,1-1.66-.86A1.29,1.29,0,0,1,437.94,315.91Zm.08.23a1.08,1.08,0,0,0,.66,2.06,1.08,1.08,0,0,0-.66-2.06Z"/></g></g></svg>