<svg xmlns="http://www.w3.org/2000/svg" xmlns:xlink="http://www.w3.org/1999/xlink" viewBox="0 0 720 720"><defs><style>.cls-1{fill:red;}.cls-2{fill:#fff;}</style></defs><g id="Calque_2" data-name="Calque 2"><g id="Calque_1-2" data-name="Calque 1"><image width="3000" height="3000" transform="scale(0.24)" xlink:href="../../Free-T-shirt-Mockup-Front.-whitepng.png"/><rect class="cls-1" x="250" y="282" width="215.55" height="52"/><path class="cls-2" d="M276.59,324.9,269.4,315H266v9.89h-8.29V293.05h12.49c7.1,0,12.31,4.35,12.31,11a10.37,10.37,0,0,1-5,9.07l8.39,11.82ZM266,307.77h4.25A3.56,3.56,0,0,0,274,304a3.52,3.52,0,0,0-3.81-3.72H266Z"/><path class="cls-2" d="M309.74,324.9h-7.58v-2a9.7,9.7,0,0,1-7,2.56c-5.26,0-8.3-3.43-8.3-7.48,0-4.49,3.62-7.19,9.46-7.19h5.07v-.39c0-1.88-1.16-3.09-3.67-3.09-2.17,0-3.72.87-6,2.95L287.88,305c3.23-3.28,6.51-4.83,10.9-4.83,6.76,0,11,3.77,11,10.72Zm-8.3-9h-3.91c-1.4,0-2.22.67-2.22,1.83s.92,1.88,2.46,1.88a3.41,3.41,0,0,0,3.67-3.52Z"/><path class="cls-2" d="M338.54,324.9h-8.3V311.24a3.38,3.38,0,0,0-3.52-3.57,3.35,3.35,0,0,0-3.48,3.57V324.9h-8.3V300.77h7.58v2a9.52,9.52,0,0,1,6.8-2.56c5.6,0,9.22,3.86,9.22,9.85Z"/><path class="cls-2" d="M368.6,288.71V324.9H361v-2.51c-1.49,2.07-3.81,3.09-6.9,3.09-6.75,0-11.58-5.26-11.58-12.6s4.92-12.69,11.58-12.69a8.62,8.62,0,0,1,6.18,2.22v-13.7Zm-12.84,19c-2.55,0-4.73,1.88-4.73,5.12s2.08,5.11,4.73,5.11,4.68-1.78,4.68-5.07S358.32,307.72,355.76,307.72Z"/><path class="cls-2" d="M385.92,300.19c7.19-.14,13.32,5.75,13.17,12.65.15,6.9-6,12.78-13.17,12.64-7.19.14-13.27-5.74-13.13-12.64C372.65,305.94,378.73,300.05,385.92,300.19Zm.05,7.63c-2.75,0-4.68,2.07-4.68,5s1.93,5,4.68,5,4.63-2.12,4.63-5A4.7,4.7,0,0,0,386,307.82Z"/><path class="cls-2" d="M441.69,324.9H433.4V311.24a3.24,3.24,0,0,0-3.43-3.57c-2,0-3.33,1.31-3.33,3.57V324.9h-8.3V311.24a3.24,3.24,0,0,0-3.43-3.57c-2,0-3.32,1.31-3.32,3.57V324.9h-8.3V300.77h7.57v1.88a9.28,9.28,0,0,1,6.61-2.46,8.51,8.51,0,0,1,7,3.09,11.16,11.16,0,0,1,7.91-3.09c5.74,0,9.31,3.86,9.31,9.85Z"/><path class="cls-2" d="M451.05,314.67a5.41,5.41,0,1,1-5.5,5.4A5.26,5.26,0,0,1,451.05,314.67Z"/><path d="M379.33,344.94h-2.84v-7.15h2.43a1.73,1.73,0,0,1,1.93,1.75A1.6,1.6,0,0,1,380,341a1.88,1.88,0,0,1,1.52,1.92A2,2,0,0,1,379.33,344.94Zm-2.27-6.64v2.54h1.81a1.28,1.28,0,1,0,0-2.55Zm2.22,3.05h-2.22v3.08h2.22a1.55,1.55,0,1,0,0-3.08Z"/><path d="M387.33,339.71l-2.61,6.09a1.68,1.68,0,0,1-1.64,1.2,2.52,2.52,0,0,1-.73-.1v-.47a3,3,0,0,0,.66.07,1.21,1.21,0,0,0,1.21-.9l.34-.77-2.25-5.12h.6l1.94,4.51,1.89-4.51Z"/><path d="M388.19,344.13h.67l-.39,2.76H388Z"/><path d="M395.31,338.3H392.7v-.51h5.8v.51h-2.62v6.64h-.57Z"/><path d="M403.87,344.94h-.54v-3.26a1.42,1.42,0,0,0-1.46-1.57,1.51,1.51,0,0,0-1.56,1.57v3.26h-.54v-8.12h.54v3.6a1.93,1.93,0,0,1,1.66-.82,1.85,1.85,0,0,1,1.9,2Z"/><path d="M406,342.45a2.12,2.12,0,0,0,2.15,2.09,2.22,2.22,0,0,0,1.75-.82l.34.36a2.77,2.77,0,0,1-2.1,1,2.73,2.73,0,0,1-.06-5.45,2.27,2.27,0,0,1,2.34,2.33,2.21,2.21,0,0,1,0,.52Zm3.85-.49a1.73,1.73,0,0,0-1.8-1.86,1.87,1.87,0,0,0-1.35.53A2.12,2.12,0,0,0,406,342Z"/><path d="M415.1,337.79h.56v3h4.4v-3h.56v7.15h-.56v-3.61h-4.4v3.61h-.56Z"/><path d="M425,339.6a2.73,2.73,0,1,1-2.71,2.72A2.68,2.68,0,0,1,425,339.6Zm0,.51a2.22,2.22,0,1,0,2.14,2.22A2.14,2.14,0,0,0,425,340.11Z"/><path d="M429.19,339.71h.55V343a1.51,1.51,0,1,0,3,0v-3.27h.54V343a2.06,2.06,0,1,1-4.11,0Z"/><path d="M435.11,343.61a2,2,0,0,0,1.63.93c.67,0,1.17-.32,1.17-.92s-.33-.71-1.07-1.05l-.47-.21c-.83-.35-1.29-.71-1.29-1.39a1.19,1.19,0,0,1,.48-1,1.89,1.89,0,0,1,1.18-.37,2.06,2.06,0,0,1,1.69.84l-.35.34a1.83,1.83,0,0,0-1.37-.67c-.6,0-1.06.29-1.06.82s.28.64,1,.95l.48.21c.88.39,1.36.78,1.36,1.51a1.28,1.28,0,0,1-.51,1.07,2,2,0,0,1-1.24.38,2.38,2.38,0,0,1-2-1.08Z"/><path d="M440.33,342.45a2.14,2.14,0,0,0,2.16,2.09,2.18,2.18,0,0,0,1.74-.82l.35.36a2.77,2.77,0,0,1-2.1,1,2.73,2.73,0,0,1-.07-5.45,2.27,2.27,0,0,1,2.34,2.33,2.32,2.32,0,0,1,0,.52Zm3.86-.49a1.74,1.74,0,0,0-1.8-1.86,1.86,1.86,0,0,0-1.35.53,2.18,2.18,0,0,0-.69,1.33Z"/><path d="M449.31,343.22a2.53,2.53,0,0,0,2.16,1.3c.95,0,1.62-.52,1.62-1.35s-.36-1-1.32-1.48l-.81-.39c-.9-.41-1.54-.81-1.58-1.85a1.88,1.88,0,0,1,2.08-1.77,2.54,2.54,0,0,1,2.14,1.14l-.42.32a2.06,2.06,0,0,0-1.72-.94,1.76,1.76,0,0,0-1,.31,1,1,0,0,0-.45.91c.05.76.41,1,1.27,1.38l.8.39c1.12.52,1.65,1,1.65,2a2,2,0,0,1-2.22,1.9,2.94,2.94,0,0,1-2.57-1.52Z"/><path d="M458,344.94a2.82,2.82,0,0,1-.81.11,1.42,1.42,0,0,1-1.6-1.57v-3.27h-.91v-.5h.91v-1.48h.55v1.48h1.69v.5h-1.69v3.25c0,.79.43,1.09,1.14,1.09a4.15,4.15,0,0,0,.72-.08Z"/><path d="M459.23,339.71h.54V343a1.51,1.51,0,1,0,3,0v-3.27h.54V343a2.05,2.05,0,1,1-4.1,0Z"/><path d="M470.13,336.82v8.12h-.52v-1.06a2.39,2.39,0,0,1-2.14,1.17,2.73,2.73,0,0,1,0-5.45,2.4,2.4,0,0,1,2.11,1.13v-3.91Zm-2.6,3.29a2.22,2.22,0,0,0,0,4.43,2.22,2.22,0,0,0,0-4.43Z"/><path d="M472.64,344a.51.51,0,0,1,.54.54.53.53,0,1,1-.54-.54Z"/><path d="M475.45,337.22a.47.47,0,0,1,.47.47.48.48,0,1,1-.95,0A.47.47,0,0,1,475.45,337.22Zm-.27,2.49h.54v5.23h-.54Z"/><path d="M480,339.6a2.73,2.73,0,1,1-2.71,2.72A2.68,2.68,0,0,1,480,339.6Zm0,.51a2.22,2.22,0,1,0,2.14,2.22A2.15,2.15,0,0,0,480,340.11Z"/></g></g></svg>